# xmcd
#
# Track frame offsets:
#	150
#	22488
#	45224
#	59988
#	83547
#	110048
#	125719
#	148095
#	169217
#	192053
#	210540
#	223625
#
# Disc length: 3404 seconds
#
# Revision: 1
# Processed by: cddbd v1.5.1PL0 Copyright (c) Steve Scherf et al.
# Submitted via: CDex 1.50Beta5
#
DISCID=b90d4a0c
DTITLE=さだまさし - 特撰さだまさし 夢の章 夢一匁
DYEAR=2003
DGENRE=
TTITLE0=夢一匁
TTITLE1=夢の吹く頃
TTITLE2=夢一色
TTITLE3=夢唄
TTITLE4=夢のつづき
TTITLE5=夢しだれ
TTITLE6=夢の夢
TTITLE7=夢
TTITLE8=夢街道
TTITLE9=Dream〜愛を忘れない〜
TTITLE10=夢ばかりみていた
TTITLE11=最期の夢
EXTD=
EXTT0=
EXTT1=
EXTT2=
EXTT3=
EXTT4=
EXTT5=
EXTT6=
EXTT7=
EXTT8=
EXTT9=
EXTT10=
EXTT11=
PLAYORDER=
